<?xml version="1.0" encoding="UTF-8" standalone="no"?>
<svg
   width="16"
   height="16"
   fill="currentColor"
   class="bi bi-telegram"
   viewBox="0 0 16 16"
   version="1.1"
   id="svg1"
   sodipodi:docname="telegram.svg"
   xml:space="preserve"
   inkscape:version="1.4.2 (f4327f4, 2025-05-13)"
   xmlns:inkscape="http://www.inkscape.org/namespaces/inkscape"
   xmlns:sodipodi="http://sodipodi.sourceforge.net/DTD/sodipodi-0.dtd"
   xmlns="http://www.w3.org/2000/svg"
   xmlns:svg="http://www.w3.org/2000/svg"><defs
     id="defs1" /><sodipodi:namedview
     id="namedview1"
     pagecolor="#ffffff"
     bordercolor="#000000"
     borderopacity="0.25"
     inkscape:showpageshadow="2"
     inkscape:pageopacity="0.0"
     inkscape:pagecheckerboard="0"
     inkscape:deskcolor="#d1d1d1"
     inkscape:zoom="32"
     inkscape:cx="1.609375"
     inkscape:cy="6.453125"
     inkscape:window-width="1920"
     inkscape:window-height="1057"
     inkscape:window-x="-8"
     inkscape:window-y="-8"
     inkscape:window-maximized="1"
     inkscape:current-layer="svg1" /><path
     style="fill:#000000;fill-opacity:1;stroke-width:1.70077"
     d="m 3.5179742,15.972903 c -1.126127,-0.08663 -1.814326,-0.374962 -2.460585,-1.030878 -0.52369196,-0.531518 -0.81517996,-1.09103 -0.93701596,-1.798607 -0.102372,-0.594515 -0.114905,-1.156468 -0.114905,-5.1536842 0,-4.6281398 0.0153,-4.9893268 0.238561,-5.6460408 0.317604,-0.934057 1.16740196,-1.78409387 2.10119496,-2.10178587 0.656867,-0.223479 1.016238,-0.23863 5.6604474,-0.23863 4.6305544,0 5.0052694,0.01565 5.6507204,0.235381 0.960632,0.327085 1.813964,1.18583087 2.119795,2.13323887 0.214236,0.66367 0.229281,1.033364 0.229281,5.6338418 0,4.6002582 -0.01496,4.9697922 -0.229231,5.6338412 -0.303644,0.941356 -1.194295,1.832467 -2.138313,2.139418 -0.285827,0.09294 -0.701382,0.160507 -1.21508,0.197559 -0.523544,0.03776 -8.4085308,0.03453 -8.9048778,-0.0036 z m 0.569601,-2.094743 c 0.410226,-0.118917 0.8636194,-0.362922 1.1262154,-0.606114 l 0.219345,-0.203138 0.249,0.171176 c 0.523716,0.360029 1.002114,0.557935 1.54746,0.640162 0.364993,0.05503 1.218056,0.06231 1.608962,0.01378 2.0194944,-0.250991 3.7757054,-1.521359 4.6542404,-3.366683 0.9963,-2.0926842 0.703348,-4.5980392 -0.751493,-6.426828 C 11.806786,2.925789 10.455901,2.158344 8.9337226,1.93741 8.3821726,1.85736 7.3988736,1.8883 6.8536286,2.00287 5.3635536,2.315977 4.0884932,3.09621 3.1882092,4.245812 c -0.87695,1.1198018 -1.320815,2.5525878 -1.249106,4.0320658 0.0526,1.085064 0.150072,1.637438 0.57889,3.2802452 0.162876,0.623986 0.25636,1.162507 0.289097,1.665372 0.03046,0.467777 0.09247,0.580321 0.382374,0.693792 0.175002,0.0685 0.589164,0.05049 0.898111,-0.03907 z m 1.3257694,-2.959706 c -0.171344,-0.183474 -0.362242,-0.86132 -0.446175,-1.5842812 -0.04894,-0.421578 -0.04115,-1.189515 0.01599,-1.574359 0.09263,-0.623933 0.296277,-1.176033 0.605368,-1.641104 0.181809,-0.273556 0.644442,-0.715481 0.915462,-0.874482 0.8372,-0.4911688 1.910428,-0.5389818 2.794644,-0.124514 0.9203094,0.431393 1.5650934,1.235363 1.7626294,2.197794 0.06571,0.320185 0.06744,0.885466 0.0036,1.184386 -0.269978,1.264259 -1.2566224,2.2084182 -2.5433444,2.4338272 -0.651408,0.114121 -1.184322,0.0231 -1.834098,-0.313225 l -0.310221,-0.160576 -0.201802,0.183607 c -0.230829,0.210017 -0.487223,0.368449 -0.596981,0.368886 -0.04258,1.7e-4 -0.114139,-0.04144 -0.16507,-0.09597 z"
     id="path2" /></svg>
