<?xml version="1.0" encoding="UTF-8" standalone="no"?>
<svg
   width="16"
   height="16"
   fill="currentColor"
   class="bi bi-telegram"
   viewBox="0 0 16 16"
   version="1.1"
   id="svg4"
   sodipodi:docname="telegram (1).svg"
   inkscape:version="1.1 (c68e22c387, 2021-05-23)"
   xmlns:inkscape="http://www.inkscape.org/namespaces/inkscape"
   xmlns:sodipodi="http://sodipodi.sourceforge.net/DTD/sodipodi-0.dtd"
   xmlns="http://www.w3.org/2000/svg"
   xmlns:svg="http://www.w3.org/2000/svg">
  <defs
     id="defs8" />
  <sodipodi:namedview
     id="namedview6"
     pagecolor="#ffffff"
     bordercolor="#cccccc"
     borderopacity="1"
     inkscape:pageshadow="0"
     inkscape:pageopacity="1"
     inkscape:pagecheckerboard="0"
     showgrid="false"
     inkscape:zoom="26"
     inkscape:cx="6.6923077"
     inkscape:cy="9.9038462"
     inkscape:window-width="1920"
     inkscape:window-height="1017"
     inkscape:window-x="-8"
     inkscape:window-y="-8"
     inkscape:window-maximized="1"
     inkscape:current-layer="svg4" />
  <path
     style="fill:#000000;stroke-width:1;fill-opacity:1;stroke:none"
     d="M 2.0602719,15.871196 C 1.4817086,15.667434 0.92877659,15.261811 0.57025919,14.778142 -0.02557101,13.974319 -0.01820511,14.06604 0.00968159,7.7983559 l 0.02511,-5.6444658 0.2141747,-0.4300342 C 0.54774879,1.1239429 1.1623532,0.5245916 1.7699549,0.2406164 L 2.2847841,0 H 8.0016578 13.71853 l 0.601828,0.29544214 c 0.654533,0.32131532 1.111658,0.78045726 1.44145,1.44781136 l 0.20293,0.4106366 0.02443,5.7127538 c 0.02427,5.6760231 0.02317,5.7161081 -0.17134,6.2345231 -0.23529,0.627093 -0.898663,1.328875 -1.563085,1.653591 l -0.449999,0.219924 -5.6699812,0.01949 c -4.9822535,0.01713 -5.7190447,0.0023 -6.0744943,-0.122974 z m 4.8964726,-2.269737 1.0880223,-1.071915 1.093763,1.071915 c 1.0313632,1.010761 1.1144052,1.071914 1.4555722,1.071914 0.493496,0 0.914598,-0.404549 0.918008,-0.881922 0.0022,-0.308366 -0.08849,-0.417897 -1.405347,-1.697113 C 9.2481238,11.260236 8.7469788,10.711644 8.8219128,10.687839 10.004201,10.535716 11.092334,9.8619596 11.936946,9.1893576 12.109173,8.8991404 12.033476,8.5462992 11.735186,8.2488479 11.415346,7.9299115 11.009863,7.9619182 10.468101,8.3488649 9.1242278,9.3087004 6.8870202,9.3075961 5.5312885,8.346467 4.8845247,7.8879346 4.3677212,7.9353837 4.0857118,8.4791874 3.8395789,8.9538109 3.9055823,9.1440035 4.503745,9.6837796 5.5036474,10.431474 6.1828921,10.581723 7.2823419,10.76475 l -1.3088898,1.307371 c -1.0955162,1.094244 -1.3176567,1.361243 -1.3626697,1.637842 -0.047625,0.292649 -0.017453,0.366697 0.2636072,0.646963 0.2506587,0.249952 0.3885481,0.31649 0.6558599,0.31649 0.3116768,0 0.4246119,-0.08486 1.426495,-1.071914 z M 9.2403748,7.8328792 C 9.9155228,7.5846501 10.709482,6.8257902 11.080664,6.0739422 11.347454,5.5335461 11.374624,5.4030847 11.37334,4.6686479 11.37214,3.9806316 11.3357,3.7815226 11.130711,3.3427791 10.08344,1.101288 7.3020691,0.56965543 5.5842446,2.2826262 5.3385282,2.5276496 5.0221268,2.9623887 4.8811329,3.2487151 c -0.2299114,0.4668922 -0.256354,0.6131657 -0.256354,1.418046 0,0.8048804 0.026439,0.9511539 0.256354,1.4180461 0.8139434,1.6529201 2.6334972,2.3825675 4.3592419,1.748072 z M 7.5047684,6.2192023 C 7.3562693,6.167673 7.0983155,5.9992305 6.9315384,5.8448698 6.1848247,5.1537501 6.1927918,4.1431274 6.9501814,3.4800088 7.9781118,2.5800232 9.4899978,3.1525321 9.6007018,4.4836864 9.6522118,5.1030285 9.5027218,5.5353722 9.1217258,5.868942 8.6509198,6.2811473 8.0552188,6.4101863 7.5047662,6.2192023 Z"
     id="path981"
     sodipodi:nodetypes="ssscsscccsscssscsssccsscsccsscsccssssccssssssscssssssss" />
</svg>
