<?xml version="1.0" encoding="UTF-8" standalone="no"?>
<svg
   width="16"
   height="16"
   fill="currentColor"
   class="bi bi-telegram"
   viewBox="0 0 16 16"
   version="1.1"
   id="svg1"
   sodipodi:docname="telegram.svg"
   xml:space="preserve"
   inkscape:version="1.4.2 (f4327f4, 2025-05-13)"
   xmlns:inkscape="http://www.inkscape.org/namespaces/inkscape"
   xmlns:sodipodi="http://sodipodi.sourceforge.net/DTD/sodipodi-0.dtd"
   xmlns="http://www.w3.org/2000/svg"
   xmlns:svg="http://www.w3.org/2000/svg"><defs
     id="defs1" /><sodipodi:namedview
     id="namedview1"
     pagecolor="#ffffff"
     bordercolor="#000000"
     borderopacity="0.25"
     inkscape:showpageshadow="2"
     inkscape:pageopacity="0.0"
     inkscape:pagecheckerboard="0"
     inkscape:deskcolor="#d1d1d1"
     inkscape:zoom="18.627844"
     inkscape:cx="-2.0667985"
     inkscape:cy="5.4488323"
     inkscape:window-width="1920"
     inkscape:window-height="1057"
     inkscape:window-x="-8"
     inkscape:window-y="-8"
     inkscape:window-maximized="1"
     inkscape:current-layer="svg1" /><path
     style="fill:#000000;stroke-width:0.0398726"
     d="M 4.9149762,15.952057 C 2.5251962,15.540507 0.63581655,13.710177 0.13403655,11.320527 0.03493655,10.848377 5.0655219e-4,9.9671677 6.5521875e-6,7.8858077 -4.9344781e-4,5.7986077 0.02740655,5.2215777 0.15815655,4.6207577 c 0.22505,-1.03459 0.74033,-1.99457 1.49130965,-2.77837 0.51746,-0.54008 0.95752,-0.86724 1.59363,-1.1847802 0.76818,-0.38346 1.30531,-0.5402 2.12576,-0.62031 0.51941,-0.0507 4.7330908,-0.0494 5.2782908,0.002 1.06644,0.0999 2.12425,0.50459 2.96697,1.1351402 0.44674,0.33427 1.07506,0.99442 1.36714,1.43639 0.41287,0.62476 0.73322,1.38696 0.87976,2.09321 0.11179,0.53879 0.13946,1.17236 0.13898,3.18206 -6.7e-4,2.8036893 -0.0379,3.2645093 -0.33609,4.1585193 -0.28903,0.86664 -0.73141,1.57281 -1.41144,2.25311 -0.68642,0.68669 -1.39203,1.13158 -2.24586,1.41603 -0.85925,0.28624 -0.69318,0.2741 -3.8871808,0.28426 -2.29874,0.007 -2.95079,-0.002 -3.20445,-0.0457 z m 6.9860908,-5.28623 c 0.42727,-0.11526 0.93553,-0.38203 1.03476,-0.54311 0.0887,-0.1439793 0.10421,-0.3786593 0.0339,-0.5121893 -0.0253,-0.048 -0.16026,-0.21579 -0.29997,-0.37292 -0.39596,-0.4453 -0.59982,-0.50276 -1.04093,-0.29339 -0.21623,0.10262 -0.29889,0.11978 -0.5772,0.11975 -0.27426,-3e-5 -0.36207,-0.0177 -0.56404,-0.11357 -0.5608808,-0.26623 -0.7840208,-0.83923 -0.5253108,-1.34894 0.1969908,-0.38809 0.5218808,-0.58034 1.0239008,-0.60589 0.30157,-0.0154 0.36737,-0.005 0.59593,0.0912 0.2016,0.0851 0.30005,0.10448 0.45714,0.0898 0.68914,-0.0644 1.24029,-0.59185 1.28585,-1.23063 0.024,-0.33651 -0.005,-0.45776 -0.12957,-0.53958 l -0.0975,-0.0641 -0.21518,0.12352 c -0.11835,0.0679 -0.26125,0.12352 -0.31754,0.12352 -0.0563,0 -0.26012,-0.0525 -0.45293,-0.11666 -0.67822,-0.22568 -1.18523,-0.24792 -1.8764,-0.0823 -0.6680908,0.16009 -1.2713108,0.55664 -1.6696108,1.09757 -0.097,0.1318 -0.1862,0.23507 -0.19813,0.22949 -0.0119,-0.006 -0.0179,-0.15834 -0.0134,-0.33948 0.01,-0.39322 0.0516,-0.4715 0.32513,-0.61055 0.16106,-0.0819 0.19836,-0.11952 0.18837,-0.19002 -0.0166,-0.1169 -0.23613,-0.22129 -0.57762,-0.27463 -0.32177,-0.0503 -1.36113,-0.0207 -1.5744,0.0448 -0.27207,0.0835 -0.31445,0.28557 -0.23087,1.10047 0.0697,0.67935 0.008,1.32641 -0.1413,1.47593 -0.18853,0.18915 -0.45685,-0.0183 -0.90144,-0.69713 -0.25939,-0.39601 -0.74664,-1.32214 -0.74664,-1.41913 0,-0.0246 -0.0462,-0.0882 -0.10263,-0.1415 l -0.10263,-0.0968 -0.80454,-0.0122 c -0.90179,-0.0137 -1.02044,0.007 -1.02018,0.18094 2e-4,0.13153 0.47352,1.10601 0.87828,1.80821 1.09337,1.89687 2.00147,2.7774993 3.17454,3.0785093 0.39168,0.10051 1.33466,0.11049 1.46974,0.0156 0.12627,-0.0887 0.16889,-0.2968 0.17155,-0.8375293 l 0.002,-0.47927 0.10734,0.13979 c 0.2059,0.26814 0.71139,0.7398593 0.9363,0.8737393 0.26754,0.15926 0.6313408,0.29694 1.0086108,0.38172 0.36409,0.0818 1.0813,0.0562 1.48629,-0.053 z"
     id="path2" /></svg>
